<?xml version="1.0" encoding="iso-8859-1"?>
<!-- Generator: Adobe Illustrator 18.0.0, SVG Export Plug-In . SVG Version: 6.00 Build 0)  -->
<!DOCTYPE svg PUBLIC "-//W3C//DTD SVG 1.1//EN" "http://www.w3.org/Graphics/SVG/1.1/DTD/svg11.dtd">
<svg version="1.1" id="Capa_1" xmlns="http://www.w3.org/2000/svg" xmlns:xlink="http://www.w3.org/1999/xlink" x="0px" y="0px"
	 viewBox="0 0 470.456 470.456" style="enable-background:new 0 0 470.456 470.456;" xml:space="preserve">
<path d="M273.197,95.415c14.303-5.798,30.263-16.973,44.934-31.644c8.353-8.352,14.991-15.896,11.613-23.648
	c-3.176-7.289-11.234-6.994-18.345-6.735c-3.642,0.134-11.222,0.41-12.891-1.26c-1.664-1.662-1.377-9.524-1.254-12.881
	c0.259-7.111,0.553-15.172-6.736-18.348c-7.754-3.376-15.296,3.261-23.648,11.612c-14.668,14.668-25.842,30.633-31.639,44.945
	c-5.791-14.306-16.965-30.271-31.641-44.945c-8.352-8.352-15.896-14.989-23.65-11.612c-7.291,3.177-6.997,11.24-6.738,18.354
	c0.122,3.356,0.408,11.217-1.253,12.879c-1.667,1.667-9.249,1.39-12.892,1.257c-7.113-0.26-15.171-0.553-18.347,6.736
	c-3.377,7.752,3.264,15.297,11.618,23.647c14.676,14.676,30.634,25.852,44.931,31.645c-14.302,5.792-30.26,16.965-44.93,31.634
	c-8.355,8.353-14.997,15.897-11.619,23.651c3.175,7.291,11.238,6.997,18.352,6.738c3.644-0.133,11.224-0.408,12.883,1.25
	c1.664,1.666,1.388,9.246,1.256,12.889c-0.259,7.114-0.553,15.178,6.738,18.355c1.415,0.616,2.822,0.899,4.229,0.899
	c6.305,0,12.593-5.683,19.423-12.512c9.268-9.274,17.129-19.059,23.136-28.613v73.949c-12.28-13.772-30.141-22.466-50.001-22.466
	c-4.694,0-8.5,3.806-8.5,8.5c0,34.063,25.558,62.25,58.501,66.442v22.938c-12.28-13.772-30.141-22.466-50.001-22.466
	c-4.694,0-8.5,3.806-8.5,8.5c0,34.063,25.558,62.25,58.501,66.442v22.938c-12.28-13.772-30.141-22.466-50.001-22.466
	c-4.694,0-8.5,3.806-8.5,8.5c0,34.063,25.558,62.25,58.501,66.442v34.995c0,4.694,3.806,8.5,8.5,8.5s8.5-3.806,8.5-8.5v-34.995
	c32.943-4.192,58.501-32.379,58.501-66.442c0-4.694-3.806-8.5-8.5-8.5c-19.86,0-37.721,8.694-50.001,22.466v-22.938
	c32.943-4.192,58.501-32.379,58.501-66.442c0-4.694-3.806-8.5-8.5-8.5c-19.86,0-37.721,8.694-50.001,22.466v-22.938
	c32.943-4.192,58.501-32.379,58.501-66.442c0-4.694-3.806-8.5-8.5-8.5c-19.86,0-37.721,8.694-50.001,22.466v-73.962
	c6.009,9.563,13.872,19.353,23.142,28.627c6.828,6.829,13.116,12.511,19.42,12.511c1.406,0,2.814-0.283,4.228-0.899
	c7.289-3.176,6.995-11.237,6.736-18.35c-0.133-3.644-0.409-11.226,1.254-12.889c1.666-1.664,9.245-1.388,12.886-1.256
	c7.114,0.259,15.174,0.552,18.35-6.737c3.378-7.753-3.261-15.298-11.613-23.65C303.459,112.38,287.499,101.207,273.197,95.415z
	 M235.228,115.413c-11.027,0-19.999-8.971-19.999-19.999s8.971-19.999,19.999-19.999s19.999,8.971,19.999,19.999
	S246.256,115.413,235.228,115.413z M278.89,24.531c0.436-0.436,0.853-0.848,1.251-1.236c-0.055,7.082,0.734,15.248,6.349,20.856
	c5.612,5.613,13.787,6.4,20.856,6.349c-0.389,0.398-0.8,0.814-1.236,1.25c-12.409,12.409-25.991,22.16-37.729,27.265
	c-3.599-7.247-9.503-13.151-16.749-16.751C256.737,50.52,266.485,36.937,278.89,24.531z M163.114,50.5
	c7.065,0.052,15.245-0.736,20.856-6.349c5.612-5.612,6.4-13.779,6.344-20.861c0.399,0.39,0.817,0.803,1.255,1.241
	c12.411,12.411,22.16,25.994,27.259,37.73c-7.249,3.601-13.155,9.506-16.755,16.755c-11.73-5.101-25.309-14.852-37.725-27.268
	C163.914,51.314,163.503,50.898,163.114,50.5z M191.57,166.301c-0.438,0.438-0.856,0.851-1.255,1.241
	c0.055-7.083-0.732-15.254-6.347-20.874c-5.613-5.608-13.772-6.401-20.859-6.341c0.39-0.399,0.804-0.818,1.241-1.255
	c12.41-12.409,25.99-22.157,37.725-27.257c3.6,7.248,9.505,13.152,16.752,16.753C213.73,140.298,203.981,153.882,191.57,166.301z
	 M186.11,219.073c20.063,3.824,35.912,19.672,39.735,39.735C205.783,254.984,189.934,239.135,186.11,219.073z M186.11,294.487
	c20.063,3.824,35.912,19.672,39.735,39.735C205.783,330.398,189.934,314.549,186.11,294.487z M186.11,369.901
	c20.063,3.824,35.912,19.672,39.735,39.735C205.783,405.812,189.934,389.963,186.11,369.901z M284.346,369.901
	c-3.824,20.063-19.672,35.911-39.735,39.735C248.435,389.573,264.283,373.725,284.346,369.901z M284.346,294.487
	c-3.824,20.063-19.672,35.911-39.735,39.735C248.435,314.159,264.283,298.311,284.346,294.487z M284.346,219.073
	c-3.824,20.063-19.672,35.911-39.735,39.735C248.435,238.745,264.283,222.896,284.346,219.073z M286.49,146.671
	c-5.615,5.615-6.404,13.783-6.349,20.867c-0.397-0.389-0.814-0.8-1.249-1.235c-12.404-12.412-22.153-25.997-27.257-37.738
	c7.245-3.601,13.148-9.505,16.747-16.751c11.735,5.1,25.317,14.848,37.728,27.259c0.437,0.438,0.851,0.856,1.241,1.255
	C300.258,140.26,292.105,141.061,286.49,146.671z"/>
<g>
</g>
<g>
</g>
<g>
</g>
<g>
</g>
<g>
</g>
<g>
</g>
<g>
</g>
<g>
</g>
<g>
</g>
<g>
</g>
<g>
</g>
<g>
</g>
<g>
</g>
<g>
</g>
<g>
</g>
</svg>
