<?xml version="1.0" encoding="iso-8859-1"?>
<!-- Generator: Adobe Illustrator 18.0.0, SVG Export Plug-In . SVG Version: 6.00 Build 0)  -->
<!DOCTYPE svg PUBLIC "-//W3C//DTD SVG 1.1//EN" "http://www.w3.org/Graphics/SVG/1.1/DTD/svg11.dtd">
<svg version="1.1" id="Capa_1" xmlns="http://www.w3.org/2000/svg" xmlns:xlink="http://www.w3.org/1999/xlink" x="0px" y="0px"
	 viewBox="0 0 468.48 468.48" style="enable-background:new 0 0 468.48 468.48;" xml:space="preserve">
<g>
	<path d="M468.48,234.24c0-11.512-12.232-20.021-37.394-26.011c-9.419-2.242-20.247-4.016-31.976-5.286
		c31.972-25.962,46.241-59.627,32.834-82.848c-13.395-23.221-49.688-27.689-88.169-12.98c4.767-10.796,8.646-21.063,11.415-30.344
		c7.394-24.786,6.141-39.633-3.829-45.39c-9.971-5.756-23.454,0.583-41.223,19.379c-6.654,7.039-13.607,15.533-20.575,25.062
		c-6.49-40.679-28.506-69.877-55.322-69.877c-26.82,0-48.841,29.191-55.334,69.862c-6.964-9.522-13.913-18.011-20.563-25.046
		c-17.769-18.795-31.252-25.134-41.223-19.379c-9.97,5.756-11.223,20.604-3.829,45.39c2.769,9.281,6.648,19.548,11.415,30.345
		c-38.479-14.707-74.777-10.24-88.183,12.979c-13.396,23.224,0.878,56.888,32.847,82.848c-11.73,1.27-22.557,3.043-31.976,5.286
		C12.232,214.219,0,222.728,0,234.24c0,11.513,12.232,20.021,37.394,26.011c9.419,2.242,20.247,4.016,31.976,5.286
		c-31.969,25.96-46.243,59.624-32.846,82.851c8.244,14.278,25.144,21.468,45.887,21.468c12.986,0,27.481-2.835,42.297-8.498
		c-4.768,10.799-8.649,21.068-11.418,30.351c-7.394,24.786-6.141,39.633,3.829,45.39c2.364,1.365,4.926,2.05,7.695,2.05
		c8.91,0,19.972-7.089,33.528-21.429c6.651-7.035,13.6-15.524,20.563-25.046c6.493,40.67,28.513,69.862,55.334,69.862
		c26.815,0,48.831-29.198,55.322-69.878c6.968,9.528,13.921,18.023,20.575,25.062c13.557,14.34,24.617,21.429,33.528,21.429
		c2.769,0,5.332-0.686,7.695-2.05c9.97-5.756,11.223-20.604,3.829-45.39c-2.769-9.283-6.649-19.552-11.417-30.35
		c14.817,5.664,29.311,8.5,42.298,8.499c20.737-0.001,37.637-7.192,45.873-21.47c13.408-23.223-0.861-56.888-32.833-82.851
		c11.73-1.27,22.557-3.043,31.976-5.286C456.248,254.261,468.48,245.752,468.48,234.24z M417.22,128.593
		c4.899,8.485,3.278,20.503-4.563,33.842c-8.398,14.284-22.682,27.907-40.357,38.568c-5.798-0.228-11.704-0.351-17.688-0.351
		c-0.272,0-0.542,0.004-0.814,0.005c9.166-13.381,11.687-27.586,5.366-38.54c-5.622-9.744-16.866-15.04-31.637-14.882
		c-1.445,0.014-2.913,0.09-4.395,0.208c0.127-0.219,0.256-0.434,0.382-0.653c2.992-5.183,5.839-10.36,8.541-15.496
		C367.937,111.517,406.582,110.151,417.22,128.593z M341.594,280.171c4.196,7.107,5.233,13.558,2.845,17.696
		c-2.386,4.136-8.477,6.46-16.745,6.379c-9.989-0.099-21.993-3.778-32.932-10.094c-9.08-5.243-16.847-11.935-22.15-18.952
		c7.964-7.465,13.751-17.216,16.313-28.198c8.715,1.085,18.388,4.452,27.464,9.687C327.33,263.012,336.516,271.57,341.594,280.171z
		 M140.786,304.246c-8.247,0.087-14.358-2.244-16.745-6.38c-2.388-4.138-1.351-10.588,2.845-17.695
		c5.078-8.601,14.264-17.159,25.199-23.478c9.079-5.238,18.755-8.603,27.468-9.69c2.563,10.981,8.349,20.73,16.311,28.195
		c-5.3,7.014-13.065,13.706-22.146,18.954C162.779,300.468,150.775,304.147,140.786,304.246z M126.886,188.309
		c-4.196-7.108-5.233-13.558-2.845-17.696c2.387-4.136,8.487-6.46,16.745-6.379c9.989,0.099,21.993,3.778,32.93,10.093
		c9.083,5.248,16.848,11.941,22.148,18.955c-7.963,7.466-13.75,17.216-16.312,28.197c-8.714-1.084-18.386-4.453-27.462-9.689
		C141.15,205.468,131.964,196.909,126.886,188.309z M234.239,273.407c-21.597,0-39.167-17.57-39.167-39.167
		s17.57-39.167,39.167-39.167s39.167,17.57,39.167,39.167S255.836,273.407,234.239,273.407z M255.871,151.864
		c0,10.472-1.908,20.532-5.328,28.63c-5.163-1.569-10.635-2.421-16.304-2.421c-5.668,0-11.14,0.852-16.302,2.421
		c-3.42-8.098-5.328-18.158-5.328-28.63c0-12.629,2.817-24.862,7.729-33.563c4.059-7.189,9.126-11.312,13.901-11.312
		s9.842,4.123,13.901,11.312C253.053,127.002,255.871,139.235,255.871,151.864z M212.609,316.616c0-10.471,1.908-20.532,5.328-28.63
		c5.162,1.569,10.634,2.421,16.302,2.421c5.669,0,11.141-0.852,16.304-2.421c3.42,8.098,5.328,18.158,5.328,28.63
		c0,12.629-2.817,24.862-7.729,33.562c-4.059,7.189-9.125,11.312-13.901,11.312s-9.842-4.123-13.901-11.312
		C215.427,341.478,212.609,329.245,212.609,316.616z M272.612,193.28c5.303-7.017,13.07-13.709,22.15-18.952
		c10.94-6.316,22.943-9.996,32.933-10.095c8.283-0.071,14.358,2.244,16.745,6.379c2.388,4.139,1.351,10.588-2.845,17.696
		c-5.078,8.6-14.264,17.159-25.199,23.478c-9.081,5.239-18.754,8.612-27.469,9.695C286.364,210.498,280.577,200.746,272.612,193.28z
		 M319.446,65.746c12.552-13.976,20.178-18.34,23.16-19.201c0.746,3.013,0.779,11.799-5.048,29.657
		c-5.935,18.187-16.15,40.236-28.766,62.087c-2.908,5.036-5.904,9.98-8.923,14.752c-4.586,1.801-9.153,3.993-13.606,6.565
		c-5.476,3.162-10.528,6.733-15.046,10.596c1.088-5.848,1.655-12.011,1.655-18.338c0-5.219-0.391-10.262-1.117-15.074
		c2.625-5.003,5.406-10.065,8.306-15.089C292.675,99.851,306.663,79.979,319.446,65.746z M207.214,43.816
		c7.63-13.458,17.228-20.871,27.026-20.871c9.792,0,19.386,7.414,27.014,20.875c8.173,14.423,12.828,33.614,13.217,54.259
		c-3.092,4.901-6.147,9.947-9.134,15.122c-0.134,0.232-0.263,0.465-0.397,0.697c-7.004-14.627-18.048-23.909-30.7-23.909
		s-23.696,9.282-30.701,23.908c-0.133-0.232-0.263-0.465-0.397-0.697c-2.992-5.181-6.051-10.234-9.147-15.141
		C194.386,77.419,199.041,58.233,207.214,43.816z M125.875,46.545c2.982,0.861,10.608,5.226,23.16,19.201
		c12.783,14.232,26.771,34.104,39.386,55.955c2.9,5.024,5.681,10.086,8.306,15.09c-0.726,4.812-1.117,9.855-1.117,15.074
		c0,6.328,0.568,12.494,1.656,18.343c-4.518-3.864-9.57-7.437-15.047-10.602c-4.453-2.571-9.02-4.763-13.606-6.564
		c-3.019-4.772-6.016-9.716-8.923-14.752c-12.616-21.851-22.832-43.9-28.766-62.087C125.096,58.344,125.129,49.558,125.875,46.545z
		 M55.822,162.435c-7.843-13.339-9.467-25.359-4.574-33.842c10.646-18.439,49.298-17.074,85.178,2.7
		c2.702,5.136,5.549,10.313,8.541,15.496c0.126,0.219,0.256,0.435,0.382,0.653c-1.482-0.118-2.95-0.194-4.395-0.208
		c-14.789-0.139-26.016,5.14-31.637,14.882c-6.32,10.953-3.8,25.158,5.367,38.54c-0.272,0-0.543-0.005-0.814-0.005
		c-5.984,0-11.89,0.123-17.688,0.351C78.506,190.343,64.221,176.72,55.822,162.435z M17.509,234.24
		c2.236-2.152,9.829-6.574,28.208-10.457c18.717-3.954,42.92-6.131,68.151-6.131c5.807,0,11.583,0.123,17.228,0.352
		c3.803,3.036,7.975,5.897,12.493,8.509c5.48,3.161,11.099,5.743,16.704,7.723c-5.606,1.981-11.227,4.573-16.709,7.735
		c-4.517,2.61-8.687,5.471-12.489,8.505c-5.647,0.229-11.423,0.352-17.227,0.352c-25.231,0-49.435-2.177-68.151-6.131
		C27.337,240.814,19.745,236.392,17.509,234.24z M51.249,339.89c-4.895-8.485-3.271-20.505,4.573-33.844
		c8.4-14.285,22.685-27.909,40.36-38.569c5.798,0.228,11.704,0.351,17.687,0.351c0.272,0,0.542-0.004,0.813-0.005
		c-9.166,13.381-11.687,27.586-5.366,38.54c5.546,9.613,16.555,14.886,31.042,14.886c0.197,0,0.397-0.001,0.596-0.003
		c1.445-0.014,2.913-0.09,4.395-0.208c-0.127,0.218-0.256,0.434-0.382,0.653c-2.992,5.183-5.839,10.36-8.541,15.496
		C100.545,356.961,61.893,358.327,51.249,339.89z M149.034,402.733c-12.552,13.976-20.178,18.34-23.16,19.201
		c-0.746-3.013-0.779-11.799,5.048-29.658c5.935-18.186,16.15-40.236,28.766-62.086c2.906-5.033,5.902-9.976,8.924-14.752
		c4.586-1.802,9.154-3.994,13.608-6.566c5.476-3.164,10.528-6.736,15.045-10.6c-1.089,5.849-1.656,12.015-1.656,18.343
		c0,5.218,0.391,10.262,1.117,15.073c-2.625,5.003-5.406,10.065-8.306,15.089C175.805,368.629,161.817,388.501,149.034,402.733z
		 M261.254,424.658c-7.629,13.462-17.223,20.876-27.014,20.876c-9.798,0-19.396-7.412-27.026-20.871
		c-8.173-14.417-12.828-33.602-13.218-54.244c3.096-4.907,6.155-9.96,9.147-15.141c0.134-0.232,0.264-0.465,0.397-0.697
		c7.004,14.626,18.048,23.908,30.701,23.908s23.696-9.282,30.7-23.908c0.133,0.232,0.263,0.465,0.397,0.697
		c2.987,5.175,6.043,10.221,9.134,15.122C274.083,391.044,269.428,410.236,261.254,424.658z M342.605,421.935
		c-2.982-0.861-10.608-5.226-23.16-19.201c-12.783-14.232-26.771-34.104-39.386-55.955c-2.9-5.024-5.681-10.086-8.306-15.089
		c0.726-4.811,1.117-9.855,1.117-15.073c0-6.327-0.567-12.49-1.655-18.338c4.518,3.864,9.57,7.434,15.046,10.596
		c4.453,2.571,9.02,4.764,13.606,6.565c3.022,4.776,6.018,9.719,8.924,14.752c12.616,21.851,22.832,43.9,28.766,62.086
		C343.384,410.136,343.351,418.922,342.605,421.935z M412.656,306.045c7.842,13.338,9.462,25.357,4.562,33.845
		c-10.636,18.441-49.281,17.074-85.163-2.703c-2.702-5.136-5.549-10.313-8.541-15.496c-0.126-0.219-0.255-0.434-0.382-0.653
		c1.482,0.118,2.95,0.194,4.395,0.208c0.199,0.002,0.397,0.003,0.596,0.003c14.485,0,25.495-5.274,31.042-14.885
		c6.321-10.953,3.801-25.158-5.366-38.54c0.272,0,0.542,0.005,0.814,0.005c5.983,0,11.889-0.123,17.687-0.351
		C389.975,278.137,404.259,291.761,412.656,306.045z M354.611,250.828c-5.804,0-11.58-0.123-17.227-0.352
		c-3.803-3.036-7.975-5.898-12.494-8.509c-5.481-3.162-11.102-5.751-16.708-7.731c5.607-1.98,11.23-4.564,16.713-7.727
		c4.516-2.61,8.687-5.47,12.488-8.505c5.645-0.229,11.421-0.352,17.227-0.352c25.231,0,49.434,2.178,68.151,6.131
		c18.38,3.883,25.972,8.305,28.208,10.457c-2.236,2.152-9.829,6.574-28.208,10.457C404.046,248.65,379.842,250.828,354.611,250.828z
		"/>
	<path d="M234.239,210.641c-13.013,0-23.599,10.586-23.599,23.599s10.586,23.599,23.599,23.599s23.599-10.586,23.599-23.599
		S247.252,210.641,234.239,210.641z M234.239,240.839c-3.639,0-6.599-2.96-6.599-6.599s2.96-6.599,6.599-6.599
		s6.599,2.96,6.599,6.599S237.878,240.839,234.239,240.839z"/>
</g>
<g>
</g>
<g>
</g>
<g>
</g>
<g>
</g>
<g>
</g>
<g>
</g>
<g>
</g>
<g>
</g>
<g>
</g>
<g>
</g>
<g>
</g>
<g>
</g>
<g>
</g>
<g>
</g>
<g>
</g>
</svg>
