<?xml version="1.0" encoding="iso-8859-1"?>
<!-- Generator: Adobe Illustrator 18.0.0, SVG Export Plug-In . SVG Version: 6.00 Build 0)  -->
<!DOCTYPE svg PUBLIC "-//W3C//DTD SVG 1.1//EN" "http://www.w3.org/Graphics/SVG/1.1/DTD/svg11.dtd">
<svg version="1.1" id="Capa_1" xmlns="http://www.w3.org/2000/svg" xmlns:xlink="http://www.w3.org/1999/xlink" x="0px" y="0px"
	 viewBox="0 0 485.432 485.432" style="enable-background:new 0 0 485.432 485.432;" xml:space="preserve">
<g>
	<path d="M385.197,245.803c-1.868-1.079-3.76-2.109-5.671-3.087c1.911-0.979,3.802-2.008,5.671-3.087
		c42.969-24.808,67.497-108.123,68.521-111.657c0.643-2.222,0.353-4.61-0.804-6.614c-1.157-2.003-3.08-3.449-5.326-4.003
		c-3.571-0.881-87.99-21.296-130.958,3.511c-1.869,1.079-3.706,2.202-5.509,3.368c0.108-2.144,0.162-4.297,0.162-6.455
		c0-49.615-59.889-112.515-62.438-115.168C247.242,0.943,245.029,0,242.716,0s-4.526,0.943-6.129,2.611
		c-2.55,2.653-62.438,65.553-62.438,115.168c0,2.158,0.054,4.311,0.162,6.455c-1.804-1.166-3.641-2.289-5.51-3.368
		c-42.967-24.807-127.386-4.392-130.957-3.511c-2.246,0.554-4.169,2-5.326,4.003c-1.156,2.003-1.446,4.392-0.804,6.614
		c1.023,3.534,25.552,86.85,68.52,111.657v0c1.869,1.079,3.761,2.108,5.672,3.087c-1.911,0.979-3.803,2.008-5.672,3.087
		c-42.968,24.807-67.496,108.123-68.52,111.657c-0.643,2.222-0.353,4.61,0.804,6.614c1.157,2.003,3.08,3.449,5.326,4.003
		c2.232,0.551,36.051,8.735,71.594,8.734c21.315-0.001,43.256-2.945,59.363-12.245c1.869-1.079,3.707-2.203,5.51-3.368
		c-0.108,2.145-0.162,4.297-0.162,6.455c0,49.615,59.889,112.515,62.438,115.168c1.603,1.668,3.815,2.611,6.129,2.611
		s4.526-0.943,6.129-2.611c2.55-2.653,62.438-65.553,62.438-115.168c0-2.158-0.054-4.311-0.162-6.455
		c1.803,1.166,3.641,2.289,5.509,3.368c42.969,24.808,127.387,4.393,130.958,3.511c2.246-0.554,4.169-2,5.326-4.003
		c1.156-2.003,1.446-4.392,0.804-6.614C452.694,353.926,428.166,270.611,385.197,245.803z M325.13,349.843
		c-7.071-4.083-13.61-8.889-19.435-14.282c-2.734-2.532-6.8-2.988-10.025-1.125c-3.228,1.864-4.864,5.612-4.038,9.246
		c1.759,7.739,2.651,15.804,2.651,23.971c0,34.292-36.708,79.661-51.567,96.619c-14.86-16.959-51.567-62.327-51.567-96.619
		c0-8.166,0.892-16.231,2.651-23.972c0.825-3.634-0.813-7.382-4.039-9.245c-1.325-0.765-2.791-1.139-4.248-1.139
		c-2.092,0-4.167,0.771-5.778,2.264c-5.822,5.394-12.36,10.198-19.434,14.282c-29.698,17.145-87.342,8.04-109.458,3.651
		c7.257-21.349,28.193-75.822,57.891-92.968c7.072-4.083,14.503-7.343,22.086-9.69c3.561-1.102,5.987-4.394,5.987-8.12
		c0-3.727-2.428-7.019-5.987-8.12c-7.582-2.346-15.013-5.606-22.086-9.69v0c-29.7-17.147-50.637-71.628-57.892-92.973
		c22.105-4.398,79.717-13.517,109.459,3.656c7.072,4.083,13.611,8.888,19.434,14.281c2.734,2.532,6.798,2.989,10.026,1.125
		c3.227-1.863,4.864-5.611,4.039-9.245c-1.76-7.741-2.651-15.806-2.651-23.972c0-34.295,36.713-79.667,51.57-96.623
		c14.859,16.943,51.564,62.275,51.564,96.623c0,8.167-0.893,16.232-2.651,23.971c-0.826,3.634,0.811,7.382,4.038,9.246
		c3.224,1.862,7.291,1.408,10.025-1.125c5.824-5.394,12.363-10.199,19.435-14.282c29.701-17.148,87.352-8.039,109.463-3.65
		c-7.243,21.34-28.149,75.794-57.896,92.967c-7.072,4.083-14.502,7.343-22.085,9.689c-3.56,1.102-5.987,4.394-5.987,8.12
		c0,3.726,2.427,7.018,5.987,8.12c7.583,2.347,15.014,5.607,22.085,9.69c29.698,17.146,50.635,71.621,57.892,92.968
		C412.473,357.884,354.827,366.989,325.13,349.843z"/>
	<path d="M335.103,223.065l-0.284-0.215c-2.72-2.06-3.731-5.838-2.405-8.987l0.134-0.316c3.05-7.152,2.557-15.139-1.354-21.913
		c-3.911-6.775-10.582-11.196-18.381-12.141l-0.265-0.033c-3.386-0.425-6.151-3.19-6.581-6.615l-0.037-0.307
		c-0.936-7.719-5.357-14.389-12.133-18.3c-6.772-3.91-14.758-4.404-21.906-1.357l-0.327,0.138c-3.145,1.325-6.921,0.312-8.971-2.392
		l-0.221-0.293c-4.669-6.217-11.834-9.783-19.656-9.783s-14.986,3.566-19.649,9.777l-0.216,0.284c-2.061,2.72-5.839,3.73-8.98,2.407
		l-0.322-0.136c-7.15-3.05-15.139-2.556-21.913,1.355c-6.774,3.911-11.196,10.581-12.129,18.287l-0.044,0.358
		c-0.425,3.385-3.19,6.151-6.572,6.575l-0.35,0.043c-7.719,0.935-14.388,5.356-18.3,12.13c-3.911,6.774-4.405,14.761-1.347,21.936
		l0.128,0.299c1.324,3.144,0.312,6.922-2.437,9.004l-0.248,0.188c-6.218,4.669-9.784,11.833-9.784,19.655
		c0,7.82,3.563,14.982,9.777,19.651l0.284,0.214c2.72,2.061,3.731,5.839,2.429,8.933l-0.159,0.372
		c-3.049,7.152-2.555,15.139,1.356,21.913c3.912,6.774,10.582,11.195,18.348,12.136l0.298,0.037c3.386,0.425,6.151,3.19,6.573,6.552
		l0.045,0.37c0.935,7.719,5.356,14.388,12.131,18.3c6.775,3.911,14.761,4.405,21.908,1.357l0.326-0.138
		c3.143-1.324,6.921-0.313,9.002,2.433l0.19,0.252c4.668,6.217,11.832,9.783,19.654,9.783c0,0,0,0,0.001,0
		c7.822,0,14.986-3.566,19.656-9.784l0.208-0.276c2.061-2.72,5.84-3.732,8.968-2.413l0.337,0.142
		c7.15,3.049,15.136,2.556,21.912-1.355c6.774-3.911,11.196-10.581,12.138-18.353l0.036-0.293c0.425-3.385,3.19-6.151,6.588-6.577
		l0.334-0.041c7.719-0.935,14.389-5.356,18.3-12.131c3.911-6.774,4.404-14.761,1.369-21.88l-0.15-0.354
		c-1.324-3.144-0.313-6.922,2.404-8.981l0.281-0.212c6.217-4.669,9.782-11.833,9.782-19.655S341.313,227.729,335.103,223.065z
		 M324.882,248.782l-0.331,0.25c-8.962,6.791-12.172,18.77-7.808,29.128l0.167,0.394c0.932,2.186,0.771,4.645-0.44,6.744
		c-1.213,2.1-3.262,3.469-5.622,3.754l-0.418,0.052c-11.156,1.4-19.926,10.169-21.321,21.287l-0.057,0.458
		c-0.286,2.361-1.654,4.41-3.755,5.622c-2.099,1.211-4.558,1.372-6.749,0.438l-0.384-0.162c-10.361-4.365-22.342-1.156-29.145,7.821
		l-0.242,0.321c-1.428,1.901-3.638,2.991-6.063,2.991c-2.424,0-4.633-1.09-6.06-2.99l-0.255-0.338
		c-4.761-6.284-12.072-9.74-19.589-9.74c-3.205,0-6.448,0.628-9.546,1.933l-0.388,0.164c-2.188,0.934-4.646,0.771-6.744-0.44
		c-2.1-1.212-3.469-3.261-3.755-5.632l-0.051-0.409c-1.4-11.157-10.17-19.927-21.314-21.325l-0.431-0.053
		c-2.36-0.286-4.409-1.654-5.621-3.754c-1.213-2.1-1.373-4.558-0.448-6.729l0.173-0.405c4.365-10.361,1.156-22.341-7.809-29.134
		l-0.328-0.248c-0.002-0.001-0.004-0.003-0.007-0.005c-1.9-1.428-2.991-3.637-2.991-6.062c0-2.424,1.091-4.634,2.998-6.066
		l0.329-0.249c8.963-6.791,12.174-18.771,7.784-29.189l-0.142-0.332c-0.933-2.187-0.772-4.646,0.44-6.746
		c1.212-2.1,3.261-3.468,5.613-3.753l0.427-0.052c11.156-1.4,19.926-10.17,21.329-21.351l0.049-0.395
		c0.285-2.36,1.654-4.409,3.754-5.621c2.1-1.213,4.557-1.374,6.75-0.438l0.383,0.162c10.363,4.365,22.344,1.156,29.107-7.773
		l0.28-0.37c1.428-1.901,3.637-2.991,6.062-2.991c2.425,0,4.634,1.09,6.066,2.997l0.249,0.331
		c6.792,8.963,18.773,12.172,29.11,7.815l0.411-0.174c2.186-0.932,4.645-0.772,6.744,0.44c2.101,1.213,3.469,3.262,3.749,5.57
		l0.058,0.47c1.4,11.156,10.17,19.926,21.33,21.327l0.306,0.038c0.005,0,0.104,0.013,0.109,0.013
		c2.359,0.286,4.408,1.654,5.621,3.754c1.212,2.1,1.372,4.558,0.426,6.778l-0.15,0.356c-4.366,10.363-1.156,22.342,7.809,29.135
		l0.334,0.252c1.901,1.427,2.991,3.637,2.991,6.062S326.789,247.35,324.882,248.782z"/>
	<path d="M242.716,182.474c-33.218,0-60.242,27.024-60.242,60.242c0,33.218,27.024,60.242,60.242,60.242
		c33.217,0,60.241-27.024,60.241-60.242C302.957,209.499,275.933,182.474,242.716,182.474z M242.716,285.958
		c-23.844,0-43.242-19.398-43.242-43.242c0-23.844,19.398-43.242,43.242-43.242s43.241,19.398,43.241,43.242
		C285.957,266.56,266.56,285.958,242.716,285.958z"/>
	<circle cx="264.905" cy="242.716" r="10.387"/>
	<circle cx="220.077" cy="242.716" r="10.387"/>
	<circle cx="242.491" cy="265.13" r="10.387"/>
	<circle cx="242.491" cy="220.302" r="10.387"/>
</g>
<g>
</g>
<g>
</g>
<g>
</g>
<g>
</g>
<g>
</g>
<g>
</g>
<g>
</g>
<g>
</g>
<g>
</g>
<g>
</g>
<g>
</g>
<g>
</g>
<g>
</g>
<g>
</g>
<g>
</g>
</svg>
