<?xml version="1.0" encoding="iso-8859-1"?>
<!-- Generator: Adobe Illustrator 18.0.0, SVG Export Plug-In . SVG Version: 6.00 Build 0)  -->
<!DOCTYPE svg PUBLIC "-//W3C//DTD SVG 1.1//EN" "http://www.w3.org/Graphics/SVG/1.1/DTD/svg11.dtd">
<svg version="1.1" id="Capa_1" xmlns="http://www.w3.org/2000/svg" xmlns:xlink="http://www.w3.org/1999/xlink" x="0px" y="0px"
	 viewBox="0 0 441.592 441.592" style="enable-background:new 0 0 441.592 441.592;" xml:space="preserve">
<path d="M393.222,206.219c-9.82-10.434-10.463-20.881-11.275-34.108c-0.763-12.403-1.649-26.794-10.555-43.026l16.331-2.461
	c3.394-0.511,6.146-3.013,6.979-6.343c0.833-3.329-0.419-6.833-3.172-8.881c-9.753-7.257-26.059-31.001-44.734-65.143
	c-8.684-15.884-25.708-26.105-44.428-26.674c-11.62-0.354-22.358,2.213-32.098,7.626C260.567,10.786,241.59,0,220.794,0
	c-20.803,0-39.777,10.787-49.473,27.213c-9.755-5.417-20.499-7.985-32.087-7.63c-18.715,0.569-35.743,10.788-44.441,26.672
	c-18.683,34.154-34.986,57.897-44.732,65.143c-2.755,2.048-4.007,5.552-3.175,8.882s3.585,5.833,6.979,6.344l16.337,2.462
	c-8.905,16.231-9.792,30.622-10.554,43.025c-0.813,13.227-1.456,23.674-11.276,34.108c-2.491,2.647-3.023,6.584-1.326,9.797
	c1.488,2.815,4.399,4.529,7.513,4.529c0.439,0,0.884-0.034,1.328-0.104c29.188-4.608,56.861-14.396,80.03-28.305
	c13.754-8.256,25.417-17.758,34.727-28.158c-2.638,35.674,11.314,75.326,41.655,118.252v150.861c0,4.694,3.806,8.5,8.5,8.5
	s8.5-3.806,8.5-8.5v-29.409c85.244-18.894,96.477-50.305,108.336-83.513c5.928-16.597,12.058-33.76,28.752-50.931
	c2.487-2.559,3.112-6.4,1.563-9.615c-1.55-3.216-4.943-5.12-8.494-4.769c-74.147,7.333-110.264,45.433-127.504,76.103
	c-0.931,1.657-1.807,3.307-2.652,4.951v-53.678c30.341-42.926,44.292-82.578,41.654-118.253c9.31,10.4,20.973,19.902,34.727,28.159
	c23.169,13.908,50.843,23.696,80.03,28.305c0.444,0.07,0.888,0.104,1.328,0.104c3.112,0,6.024-1.714,7.513-4.529
	C396.246,212.803,395.714,208.866,393.222,206.219z M246.768,339.288c19.169-34.101,50.474-55.693,93.229-64.37
	c-9.183,13.799-13.985,27.245-18.374,39.534c-10.868,30.429-19.562,54.773-91.102,71.527
	C232.283,375.092,236.538,357.486,246.768,339.288z M301.85,36.575c12.72,0.387,24.227,7.221,30.031,17.838
	c10.524,19.241,24.286,42.512,36.871,57.878l-8.156,1.229c-3.168-3.762-6.809-7.605-11.041-11.534
	c-27.443-25.483-53.256-25.879-70.081-21.722c-4.085,1.01-7.927,2.648-11.422,4.808c-3.497-6.452-8.269-12.06-13.927-16.544
	c4.014-7.379,9.836-15.754,17.825-22.06C280.679,39.563,290.741,36.232,301.85,36.575z M220.797,106.632
	c-10.709,0-20.51,3.243-28.438,8.995c-0.448-4.977-1.812-9.878-4.096-14.45c-0.575-1.151-1.211-2.261-1.886-3.34
	c5.254-14.248,19.053-23.998,34.417-23.998c15.358,0,29.16,9.747,34.426,23.993c-0.677,1.081-1.313,2.192-1.889,3.345
	c-2.285,4.572-3.648,9.474-4.096,14.451C241.307,109.875,231.505,106.632,220.797,106.632z M220.794,17
	c15.445,0,29.378,8.168,35.704,20.395c-7.514,7.126-13.133,15.396-17.181,22.788c-5.828-2.163-12.081-3.344-18.523-3.344
	c-6.442,0-12.693,1.18-18.519,3.342c-4.044-7.392-9.661-15.663-17.175-22.789C191.416,25.167,205.345,17,220.794,17z
	 M72.837,112.292c12.58-15.363,26.343-38.635,36.867-57.875c5.815-10.618,17.327-17.455,30.048-17.842
	c11.104-0.34,21.156,2.99,29.903,9.897c7.985,6.303,13.801,14.675,17.81,22.052c-5.658,4.485-10.429,10.094-13.924,16.547
	c-3.496-2.16-7.337-3.799-11.423-4.808c-16.823-4.156-42.635-3.761-70.08,21.722c-4.232,3.929-7.873,7.773-11.041,11.535
	L72.837,112.292z M127.166,177.561c-15.999,9.604-35.041,17.268-54.987,22.236c3.348-8.953,3.897-17.887,4.436-26.642
	c1.079-17.544,2.195-35.685,26.992-58.711c13.738-12.757,27.931-19.174,42.34-19.174c4.016,0,8.051,0.499,12.094,1.498
	c6.632,1.638,11.965,5.903,15.016,12.008c3.085,6.174,3.29,13.399,0.561,19.822C165.752,147.109,149.689,164.04,127.166,177.561z
	 M220.797,264.594c-29.822-44.877-39.784-84.912-29.606-119.124c4.79-16.101,18.435-21.838,29.606-21.838
	c11.171,0,24.815,5.737,29.605,21.838C260.581,179.683,250.618,219.718,220.797,264.594z M314.427,177.561
	c-22.524-13.521-38.586-30.452-46.45-48.962c-2.729-6.423-2.524-13.648,0.561-19.823c3.051-6.105,8.383-10.37,15.015-12.008
	c4.045-1,8.077-1.498,12.095-1.498c14.407,0,28.603,6.418,42.34,19.174c24.797,23.026,25.913,41.167,26.991,58.711
	c0.539,8.755,1.088,17.689,4.436,26.642C349.467,194.829,330.426,187.166,314.427,177.561z"/>
<g>
</g>
<g>
</g>
<g>
</g>
<g>
</g>
<g>
</g>
<g>
</g>
<g>
</g>
<g>
</g>
<g>
</g>
<g>
</g>
<g>
</g>
<g>
</g>
<g>
</g>
<g>
</g>
<g>
</g>
</svg>
