<?xml version="1.0" encoding="iso-8859-1"?>
<!-- Generator: Adobe Illustrator 18.0.0, SVG Export Plug-In . SVG Version: 6.00 Build 0)  -->
<!DOCTYPE svg PUBLIC "-//W3C//DTD SVG 1.1//EN" "http://www.w3.org/Graphics/SVG/1.1/DTD/svg11.dtd">
<svg version="1.1" id="Capa_1" xmlns="http://www.w3.org/2000/svg" xmlns:xlink="http://www.w3.org/1999/xlink" x="0px" y="0px"
	 viewBox="0 0 395.935 395.935" style="enable-background:new 0 0 395.935 395.935;" xml:space="preserve">
<g>
	<path d="M364.133,255.455c-1.795-1.795-3.743-3.636-5.819-5.501c23.04-11.652,37.282-31.035,37.282-51.986
		c0-20.952-14.236-40.335-37.269-51.989c2.071-1.862,4.015-3.698,5.806-5.49c31.913-31.914,41.287-72.539,21.338-92.488
		c-6.734-6.734-16.127-10.312-27.085-10.456c-0.139-10.953-3.715-20.344-10.452-27.083c-19.951-19.948-60.575-10.575-92.489,21.339
		c-1.792,1.792-3.629,3.736-5.491,5.808C238.3,14.572,218.915,0.332,197.96,0.332c-20.961,0-40.346,14.241-51.99,37.278
		c-1.863-2.072-3.699-4.016-5.491-5.808C108.566-0.113,67.941-9.484,47.992,10.463c-6.738,6.738-10.313,16.129-10.449,27.08
		c-10.951,0.136-20.342,3.711-27.08,10.449C-9.486,67.94-0.113,108.566,31.801,140.479c1.793,1.793,3.739,3.632,5.813,5.496
		c-23.036,11.653-37.276,31.038-37.276,51.992c0,20.96,14.238,40.343,37.271,51.987c-2.072,1.863-4.016,3.7-5.809,5.492
		c-31.914,31.914-41.287,72.539-21.338,92.488c6.738,6.737,16.13,10.314,27.082,10.453c0.144,10.958,3.722,20.351,10.457,27.085
		c7.076,7.077,16.753,10.463,27.721,10.463c19.952,0,44.173-11.208,64.766-31.801c1.793-1.792,3.63-3.737,5.493-5.81
		c11.653,23.031,31.033,37.266,51.979,37.266c20.954,0,40.339-14.24,51.992-37.276c1.866,2.076,3.706,4.024,5.502,5.82
		c20.595,20.595,44.813,31.801,64.767,31.801c10.966,0,20.646-3.388,27.722-10.463c6.734-6.735,10.308-16.127,10.445-27.083
		c10.956-0.138,20.349-3.711,27.084-10.445C405.42,327.994,396.046,287.368,364.133,255.455z M378.596,197.967
		c0,16.308-13.615,31.67-35.04,39.963c-16.846-12.556-37.528-24.486-56.107-30.277c0.042-0.395,0.087-0.789,0.124-1.186h54.812
		c4.694,0,8.5-3.806,8.5-8.5s-3.806-8.5-8.5-8.5h-54.811c-0.037-0.4-0.083-0.799-0.125-1.198
		c18.586-5.784,39.276-17.713,56.125-30.27C364.99,166.294,378.596,181.658,378.596,197.967z M197.966,270.942
		c-18.694-0.002-37.395-7.118-51.626-21.35c-13.79-13.79-21.384-32.125-21.384-51.626c0-19.501,7.594-37.836,21.384-51.626
		c14.233-14.233,32.93-21.35,51.626-21.35c18.696,0,37.392,7.117,51.625,21.35c13.79,13.79,21.385,32.125,21.385,51.626
		c0,19.502-7.595,37.836-21.385,51.626C235.357,263.827,216.665,270.944,197.966,270.942z M335.913,22.484
		c4.829,4.829,6.545,12.952,4.834,22.874c-0.47,2.72,0.411,5.5,2.363,7.453c1.95,1.953,4.729,2.838,7.45,2.37
		c9.931-1.703,18.063,0.015,22.891,4.842c11.375,11.375,5.515,41.593-21.339,68.447c-17.651,17.651-46.686,35.809-68.079,43.022
		c-2.098-6.85-5.011-13.417-8.695-19.582l73.257-54.549c3.766-2.804,4.545-8.129,1.741-11.894
		c-2.804-3.764-8.127-4.545-11.894-1.741l-73.177,54.49c-1.18-1.325-2.388-2.631-3.653-3.896c-1.267-1.267-2.571-2.475-3.894-3.651
		l54.49-73.177c2.804-3.765,2.024-9.09-1.741-11.894c-3.766-2.805-9.091-2.024-11.894,1.741l-54.567,73.281
		c-6.23-3.707-12.815-6.588-19.598-8.661c7.209-21.398,25.391-50.469,43.058-68.136C294.319,16.97,324.539,11.11,335.913,22.484z
		 M197.96,17.332c16.312,0,31.677,13.609,39.972,35.031c-12.57,16.863-24.513,37.573-30.298,56.17
		c-0.391-0.042-0.781-0.097-1.173-0.134V53.544c0-4.694-3.806-8.5-8.5-8.5s-8.5,3.806-8.5,8.5V108.4
		c-0.391,0.037-0.78,0.092-1.17,0.134c-5.789-18.6-17.73-39.307-30.296-56.167C166.277,30.943,181.642,17.332,197.96,17.332z
		 M18.693,87.639c-1.866-7.036-3.855-19.981,3.79-27.627c4.83-4.829,12.954-6.543,22.878-4.825c2.721,0.472,5.506-0.41,7.46-2.365
		c1.955-1.954,2.836-4.737,2.365-7.46c-1.718-9.924-0.004-18.049,4.825-22.878c7.646-7.645,20.591-5.656,27.627-3.79
		c13.771,3.652,28.267,12.577,40.819,25.129c17.66,17.659,35.842,46.732,43.056,68.138c-6.779,2.073-13.361,4.952-19.588,8.658
		l-54.566-73.28c-2.802-3.765-8.127-4.545-11.894-1.741c-3.765,2.804-4.544,8.128-1.741,11.894l54.488,73.175
		c-1.323,1.176-2.627,2.385-3.895,3.652c-1.264,1.264-2.473,2.569-3.652,3.894L57.493,83.725c-3.767-2.804-9.091-2.025-11.894,1.741
		c-2.804,3.765-2.024,9.09,1.741,11.894l73.255,54.548c-3.685,6.165-6.599,12.734-8.697,19.586
		c-21.4-7.229-50.433-25.392-68.076-43.035C31.27,115.907,22.346,101.41,18.693,87.639z M17.338,197.967
		c0-16.312,13.609-31.677,35.032-39.971c16.844,12.553,37.528,24.483,56.113,30.278c-0.042,0.397-0.088,0.794-0.125,1.193H53.537
		c-4.694,0-8.5,3.806-8.5,8.5s3.806,8.5,8.5,8.5h54.822c0.037,0.396,0.082,0.789,0.124,1.183
		c-18.583,5.791-39.269,17.722-56.116,30.28C30.947,229.647,17.338,214.284,17.338,197.967z M60.022,373.451
		c-4.827-4.827-6.547-12.957-4.842-22.891c0.467-2.721-0.417-5.499-2.37-7.451c-1.953-1.951-4.731-2.831-7.453-2.363
		c-9.923,1.709-18.045-0.006-22.874-4.833c-11.375-11.375-5.515-41.593,21.338-68.447c17.649-17.649,46.681-35.812,68.073-43.035
		c2.098,6.854,5.013,13.426,8.699,19.594l-73.255,54.548c-3.765,2.804-4.544,8.129-1.741,11.894
		c1.668,2.241,4.229,3.424,6.824,3.424c1.765,0,3.545-0.548,5.07-1.683l73.175-54.488c1.179,1.324,2.387,2.629,3.652,3.894
		c1.268,1.268,2.572,2.477,3.896,3.653l-54.488,73.175c-2.804,3.765-2.024,9.09,1.741,11.894c1.525,1.135,3.305,1.683,5.07,1.683
		c2.594,0,5.156-1.183,6.824-3.424l54.566-73.279c6.226,3.705,12.806,6.584,19.584,8.657c-7.198,21.397-25.375,50.472-43.043,68.141
		C101.614,378.966,71.397,384.826,60.022,373.451z M197.96,378.589c-16.303,0-31.662-13.607-39.957-35.023
		c12.567-16.863,24.504-37.572,30.281-56.169c0.392,0.042,0.783,0.097,1.175,0.134v54.859c0,4.694,3.806,8.5,8.5,8.5
		s8.5-3.806,8.5-8.5v-54.858c0.393-0.037,0.783-0.092,1.176-0.134c5.785,18.593,17.727,39.299,30.296,56.161
		C229.637,364.981,214.272,378.589,197.96,378.589z M373.452,335.922c-4.825,4.824-12.949,6.538-22.885,4.825
		c-2.721-0.47-5.502,0.413-7.455,2.366s-2.835,4.733-2.365,7.455c1.713,9.932,0,18.059-4.825,22.883
		c-7.645,7.645-20.592,5.656-27.626,3.79c-13.771-3.652-28.268-12.577-40.819-25.128c-17.67-17.67-35.854-46.741-43.065-68.14
		c6.782-2.073,13.366-4.954,19.595-8.66l54.568,73.281c1.669,2.241,4.229,3.424,6.824,3.424c1.765,0,3.545-0.548,5.069-1.683
		c3.766-2.804,4.545-8.129,1.741-11.894l-54.49-73.177c1.323-1.176,2.627-2.384,3.894-3.651c1.265-1.265,2.473-2.57,3.653-3.895
		l73.177,54.49c1.524,1.135,3.305,1.683,5.069,1.683c2.595,0,5.156-1.183,6.824-3.424c2.804-3.765,2.024-9.09-1.741-11.894
		l-73.257-54.55c3.685-6.167,6.6-12.737,8.698-19.59c21.393,7.226,50.424,25.39,68.076,43.042
		C378.965,294.329,384.826,324.547,373.452,335.922z"/>
	<path d="M239.512,156.42c-22.91-22.909-60.185-22.908-83.093,0c-22.908,22.909-22.908,60.184,0,83.092
		c11.097,11.098,25.852,17.209,41.546,17.209c15.694,0,30.449-6.111,41.547-17.209C262.42,216.603,262.42,179.328,239.512,156.42z
		 M227.491,227.492c-7.886,7.886-18.372,12.229-29.525,12.229c-11.153,0-21.639-4.343-29.525-12.229
		c-16.28-16.281-16.28-42.771,0-59.051c7.887-7.886,18.373-12.23,29.525-12.23c11.153,0,21.64,4.344,29.525,12.23
		c7.887,7.887,12.23,18.373,12.23,29.526C239.721,209.119,235.377,219.605,227.491,227.492z"/>
</g>
<g>
</g>
<g>
</g>
<g>
</g>
<g>
</g>
<g>
</g>
<g>
</g>
<g>
</g>
<g>
</g>
<g>
</g>
<g>
</g>
<g>
</g>
<g>
</g>
<g>
</g>
<g>
</g>
<g>
</g>
</svg>
