<?xml version="1.0" encoding="iso-8859-1"?>
<!-- Generator: Adobe Illustrator 18.0.0, SVG Export Plug-In . SVG Version: 6.00 Build 0)  -->
<!DOCTYPE svg PUBLIC "-//W3C//DTD SVG 1.1//EN" "http://www.w3.org/Graphics/SVG/1.1/DTD/svg11.dtd">
<svg version="1.1" id="Capa_1" xmlns="http://www.w3.org/2000/svg" xmlns:xlink="http://www.w3.org/1999/xlink" x="0px" y="0px"
	 viewBox="0 0 435.342 435.342" style="enable-background:new 0 0 435.342 435.342;" xml:space="preserve">
<g>
	<path d="M427.807,225.551c-1.874-2.576-3.72-5.213-5.52-7.88c1.8-2.667,3.645-5.302,5.515-7.874
		c9.55-13.112,10.055-29.772,1.318-43.479c-8.746-13.721-24.077-20.303-40.014-17.179c-4.063,0.797-8.12,1.66-12.173,2.562
		c3.504-2.228,6.983-4.486,10.42-6.794c13.478-9.055,19.666-24.551,16.148-40.44c-3.515-15.876-15.655-27.303-31.683-29.821
		c-3.137-0.492-6.303-1.048-9.463-1.662c-0.612-3.141-1.169-6.309-1.665-9.467c-2.517-16.022-13.937-28.158-29.804-31.674
		c-15.891-3.52-31.392,2.667-40.456,16.15c-2.309,3.436-4.567,6.914-6.795,10.417c0.902-4.051,1.764-8.107,2.561-12.168
		c3.13-15.938-3.449-31.274-17.171-40.023c-13.708-8.741-30.372-8.237-43.488,1.316c-2.586,1.885-5.219,3.731-7.869,5.518
		c-2.659-1.795-5.291-3.641-7.867-5.519c-13.114-9.552-29.777-10.056-43.486-1.315c-13.722,8.749-20.301,24.085-17.171,40.021
		c0.797,4.062,1.66,8.118,2.561,12.17c-2.228-3.504-4.487-6.983-6.796-10.419c-9.064-13.481-24.567-19.668-40.455-16.149
		c-15.867,3.515-27.288,15.652-29.804,31.675c-0.496,3.158-1.053,6.326-1.665,9.467c-3.16,0.613-6.327,1.169-9.464,1.662
		c-16.027,2.518-28.167,13.944-31.682,29.82c-3.518,15.889,2.67,31.385,16.147,40.439c3.436,2.309,6.914,4.567,10.418,6.795
		c-4.052-0.902-8.109-1.765-12.171-2.562c-15.933-3.124-31.266,3.458-40.013,17.179c-8.737,13.707-8.231,30.367,1.314,43.473
		c1.873,2.575,3.719,5.212,5.519,7.88c-1.799,2.666-3.644,5.301-5.514,7.873c-9.551,13.106-10.057,29.765-1.321,43.474
		c7.308,11.468,19.213,17.951,32.227,17.951c2.562,0,5.167-0.251,7.789-0.765c4.062-0.797,8.118-1.66,12.17-2.561
		c-3.503,2.228-6.981,4.486-10.417,6.794c-13.481,9.057-19.668,24.554-16.146,40.445c3.518,15.873,15.658,27.294,31.682,29.804
		c3.086,0.484,6.252,1.043,9.462,1.669c0.612,3.142,1.169,6.31,1.666,9.471c2.517,16.022,13.937,28.158,29.804,31.674
		c2.949,0.653,5.885,0.972,8.769,0.972c12.654,0,24.306-6.142,31.688-17.123c2.309-3.436,4.567-6.914,6.795-10.417
		c-0.902,4.051-1.764,8.107-2.561,12.168c-3.13,15.938,3.449,31.274,17.171,40.023c13.709,8.741,30.372,8.238,43.5-1.325
		c2.518-1.842,5.146-3.686,7.853-5.511c2.7,1.818,5.332,3.665,7.871,5.522c6.884,5.014,14.743,7.535,22.642,7.534
		c7.149,0,14.332-2.067,20.845-6.219c13.722-8.749,20.301-24.085,17.171-40.021c-0.797-4.062-1.66-8.118-2.561-12.17
		c2.228,3.504,4.487,6.983,6.796,10.419c7.382,10.98,19.032,17.122,31.686,17.121c2.883,0,5.821-0.319,8.769-0.972
		c15.867-3.515,27.287-15.652,29.804-31.674c0.496-3.159,1.053-6.326,1.665-9.467c3.136-0.61,6.303-1.169,9.461-1.672
		c16.026-2.511,28.166-13.931,31.684-29.805c3.521-15.891-2.666-31.389-16.147-40.446c-3.437-2.308-6.915-4.566-10.418-6.794
		c4.053,0.902,8.11,1.764,12.173,2.561c2.622,0.514,5.226,0.765,7.788,0.765c13.013,0,24.919-6.483,32.227-17.951
		C437.858,255.308,437.352,238.65,427.807,225.551z M217.67,272.632c-30.306,0-54.962-24.656-54.962-54.963
		c0-30.3,24.646-54.951,54.943-54.962c0.005,0,0.01,0.001,0.014,0.001c0.006,0,0.012-0.001,0.018-0.001
		c30.281,0.007,54.917,24.629,54.948,54.905c0,0.02-0.003,0.039-0.003,0.058c0,0.019,0.003,0.038,0.003,0.057
		C272.599,248.008,247.957,272.632,217.67,272.632z M304.54,57.476c6.064-9.021,15.686-10.583,22.669-9.036
		c6.964,1.543,15.005,7.007,16.687,17.714c0.833,5.303,1.828,10.631,2.957,15.836c0.708,3.26,3.256,5.804,6.518,6.507
		c5.248,1.13,10.568,2.12,15.811,2.943c10.712,1.683,16.179,9.73,17.722,16.701c1.545,6.981-0.015,16.598-9.03,22.654
		c-30.178,20.271-63.102,37.35-97.963,50.824c-1.716-2.951-3.634-5.768-5.738-8.434l36.545-36.545c3.32-3.32,3.32-8.701,0-12.021
		c-3.319-3.32-8.702-3.32-12.021,0l-36.546,36.545c-2.668-2.104-5.485-4.023-8.437-5.74
		C267.194,120.557,284.273,87.637,304.54,57.476z M175.455,20.554c6.018-3.837,15.572-5.663,24.336,0.72
		c4.314,3.144,8.777,6.207,13.266,9.103c2.802,1.808,6.403,1.81,9.208,0.005c4.471-2.878,8.941-5.942,13.283-9.107
		c8.764-6.384,18.319-4.56,24.338-0.722c6.028,3.844,11.723,11.75,9.629,22.414c-7.001,35.675-18.2,71.019-33.317,105.17
		c-3.26-0.869-6.611-1.507-10.033-1.912v-51.65c0-4.694-3.806-8.5-8.5-8.5s-8.5,3.806-8.5,8.5v51.652
		c-3.422,0.405-6.772,1.043-10.03,1.912c-15.114-34.164-26.31-69.508-33.308-105.173C163.732,32.303,169.427,24.397,175.455,20.554z
		 M48.438,108.141c1.543-6.97,7.009-15.018,17.721-16.701c5.244-0.823,10.563-1.813,15.812-2.943
		c3.261-0.702,5.81-3.247,6.518-6.507c1.129-5.205,2.125-10.533,2.957-15.835c1.682-10.708,9.723-16.171,16.687-17.714
		c6.981-1.547,16.604,0.014,22.668,9.034c20.268,30.162,37.347,63.082,50.827,97.949c-2.954,1.717-5.774,3.638-8.444,5.744
		l-36.55-36.549c-3.319-3.319-8.701-3.319-12.021,0c-3.32,3.32-3.32,8.701,0,12.021l36.55,36.55
		c-2.103,2.666-4.021,5.482-5.736,8.432c-34.87-13.477-67.792-30.557-97.959-50.827C48.453,124.738,46.893,115.121,48.438,108.141z
		 M42.963,269.521c-10.657,2.091-18.563-3.609-22.406-9.639c-3.835-6.018-5.659-15.569,0.729-24.333
		c3.13-4.306,6.19-8.769,9.095-13.265c1.813-2.807,1.813-6.417,0-9.224c-2.906-4.5-5.966-8.962-9.099-13.271
		c-6.383-8.764-4.559-18.316-0.724-24.333c3.842-6.028,11.746-11.724,22.405-9.635c35.678,7.001,71.024,18.201,105.177,33.32
		c-0.869,3.259-1.507,6.609-1.912,10.03H94.57c-4.694,0-8.5,3.806-8.5,8.5s3.806,8.5,8.5,8.5h51.657
		c0.405,3.422,1.043,6.772,1.912,10.03C113.986,251.32,78.64,262.52,42.963,269.521z M130.801,377.866
		c-6.064,9.022-15.687,10.583-22.669,9.036c-6.964-1.543-15.005-7.007-16.687-17.714c-0.833-5.304-1.828-10.632-2.957-15.836
		c-0.708-3.26-3.256-5.804-6.517-6.507c-5.369-1.156-10.689-2.15-15.814-2.955c-10.709-1.678-16.174-9.72-17.718-16.688
		c-1.547-6.981,0.013-16.599,9.03-22.657c30.166-20.27,63.089-37.35,97.96-50.827c1.715,2.95,3.633,5.766,5.736,8.432
		l-36.551,36.551c-3.32,3.32-3.32,8.701,0,12.021c1.66,1.66,3.834,2.49,6.01,2.49c2.175,0,4.351-0.83,6.01-2.49l36.551-36.551
		c2.669,2.106,5.489,4.027,8.444,5.744C168.156,314.773,151.077,347.692,130.801,377.866z M259.886,414.789
		c-6.018,3.837-15.573,5.662-24.324-0.712c-4.221-3.088-8.695-6.156-13.297-9.117c-2.805-1.805-6.406-1.803-9.208,0.005
		c-4.621,2.981-9.088,6.047-13.264,9.102c-8.765,6.384-18.32,4.559-24.338,0.722c-6.028-3.844-11.723-11.75-9.629-22.414
		c6.999-35.665,18.195-71.01,33.309-105.174c3.258,0.869,6.608,1.507,10.029,1.912v51.654c0,4.694,3.806,8.5,8.5,8.5
		s8.5-3.806,8.5-8.5v-51.653c3.422-0.405,6.773-1.042,10.032-1.911c15.117,34.151,26.317,69.496,33.318,105.174
		C271.61,403.039,265.915,410.945,259.886,414.789z M386.903,327.203c-1.543,6.967-7.009,15.01-17.738,16.691
		c-5.307,0.844-10.621,1.837-15.794,2.951c-3.261,0.702-5.81,3.247-6.517,6.507c-1.129,5.204-2.125,10.532-2.957,15.835
		c-1.682,10.708-9.723,16.171-16.687,17.714c-6.984,1.546-16.605-0.015-22.668-9.034c-20.276-30.175-37.356-63.095-50.828-97.952
		c2.952-1.716,5.77-3.635,8.437-5.739l36.547,36.547c1.66,1.66,3.835,2.49,6.01,2.49s4.351-0.83,6.01-2.49
		c3.32-3.32,3.32-8.701,0-12.021l-36.546-36.546c2.104-2.667,4.023-5.484,5.739-8.435c34.829,13.454,67.753,30.533,97.963,50.826
		C386.89,310.605,388.45,320.222,386.903,327.203z M414.785,259.882c-3.842,6.03-11.745,11.73-22.406,9.639
		c-35.679-7-71.026-18.198-105.179-33.316c0.87-3.26,1.508-6.611,1.913-10.034h51.648c4.694,0,8.5-3.806,8.5-8.5s-3.806-8.5-8.5-8.5
		h-51.647c-0.405-3.423-1.043-6.774-1.913-10.034c34.153-15.117,69.499-26.316,105.178-33.316
		c10.657-2.089,18.563,3.606,22.406,9.635c3.835,6.017,5.659,15.569-0.728,24.338c-3.129,4.303-6.189,8.766-9.095,13.265
		c-1.813,2.807-1.814,6.417,0,9.224c2.905,4.497,5.965,8.96,9.101,13.272C420.444,244.313,418.62,253.864,414.785,259.882z"/>
	<path d="M217.67,172.913c-24.679,0-44.756,20.078-44.756,44.757s20.078,44.757,44.756,44.757c24.679,0,44.757-20.078,44.757-44.757
		S242.349,172.913,217.67,172.913z M217.67,245.427c-15.305,0-27.756-12.452-27.756-27.757c0-15.305,12.452-27.757,27.756-27.757
		c15.305,0,27.757,12.452,27.757,27.757C245.427,232.975,232.975,245.427,217.67,245.427z"/>
</g>
<g>
</g>
<g>
</g>
<g>
</g>
<g>
</g>
<g>
</g>
<g>
</g>
<g>
</g>
<g>
</g>
<g>
</g>
<g>
</g>
<g>
</g>
<g>
</g>
<g>
</g>
<g>
</g>
<g>
</g>
</svg>
