<?xml version="1.0" encoding="iso-8859-1"?>
<!-- Generator: Adobe Illustrator 18.0.0, SVG Export Plug-In . SVG Version: 6.00 Build 0)  -->
<!DOCTYPE svg PUBLIC "-//W3C//DTD SVG 1.1//EN" "http://www.w3.org/Graphics/SVG/1.1/DTD/svg11.dtd">
<svg version="1.1" id="Capa_1" xmlns="http://www.w3.org/2000/svg" xmlns:xlink="http://www.w3.org/1999/xlink" x="0px" y="0px"
	 viewBox="0 0 467 467" style="enable-background:new 0 0 467 467;" xml:space="preserve">
<g>
	<path d="M463.896,226.932c-1.25-1.027-22.423-18.17-53.334-28.443c24.811-21.382,37.883-45.379,38.516-46.559
		c1.203-2.241,1.339-4.903,0.371-7.255s-2.938-4.147-5.369-4.892c-1.303-0.4-27.955-8.388-61.03-5.917
		c14.949-29.428,17.851-57.012,18.01-58.637c0.249-2.531-0.649-5.041-2.448-6.84s-4.312-2.695-6.841-2.449
		c-1.61,0.158-28.703,3.01-57.825,17.603c2.425-32.664-5.301-58.876-5.687-60.159c-0.734-2.435-2.521-4.414-4.867-5.392
		c-2.349-0.979-5.011-0.855-7.257,0.338c-1.204,0.639-25.696,13.834-47.338,38.97C258.56,25.92,241.104,4.366,240.067,3.104
		C238.453,1.139,236.043,0,233.5,0s-4.953,1.139-6.567,3.104c-1.027,1.25-18.171,22.423-28.443,53.335
		c-21.382-24.811-45.38-37.883-46.559-38.516c-2.242-1.203-4.904-1.339-7.255-0.371c-2.353,0.968-4.147,2.938-4.893,5.37
		c-0.4,1.304-8.388,27.953-5.917,61.03C104.438,69.001,76.855,66.1,75.23,65.941c-2.527-0.246-5.042,0.65-6.841,2.449
		c-1.798,1.799-2.697,4.308-2.448,6.84c0.157,1.61,3.009,28.703,17.603,57.825c-32.666-2.426-58.876,5.301-60.158,5.687
		c-2.435,0.734-4.413,2.52-5.393,4.867c-0.979,2.347-0.854,5.01,0.338,7.256c0.64,1.204,13.834,25.696,38.97,47.338
		C25.92,208.44,4.366,225.896,3.104,226.932C1.139,228.547,0,230.957,0,233.5s1.139,4.953,3.104,6.568
		c1.25,1.027,22.423,18.171,53.334,28.443c-24.812,21.382-37.883,45.379-38.516,46.559c-1.203,2.241-1.339,4.903-0.371,7.254
		c0.968,2.352,2.938,4.147,5.369,4.892c1.13,0.346,21.291,6.399,48.179,6.399c4.137,0,8.441-0.155,12.853-0.484
		C69.001,362.56,66.1,390.145,65.941,391.77c-0.249,2.532,0.65,5.041,2.448,6.84c1.603,1.602,3.768,2.49,6.01,2.49
		c0.276,0,0.554-0.013,0.831-0.041c1.61-0.158,28.703-3.01,57.825-17.603c-2.425,32.664,5.3,58.876,5.686,60.158
		c0.734,2.435,2.52,4.414,4.867,5.392c1.05,0.438,2.161,0.655,3.271,0.655c1.373,0,2.743-0.333,3.985-0.992
		c1.204-0.639,25.697-13.834,47.338-38.97c10.237,31.381,27.692,52.935,28.729,54.197c1.614,1.965,4.024,3.104,6.567,3.104
		s4.953-1.139,6.567-3.104c1.027-1.25,18.17-22.423,28.442-53.334c21.383,24.811,45.379,37.882,46.559,38.516
		c1.252,0.672,2.634,1.011,4.021,1.011c1.097,0,2.195-0.212,3.234-0.639c2.352-0.968,4.147-2.938,4.893-5.37
		c0.4-1.303,8.389-27.953,5.918-61.03c29.428,14.949,57.011,17.851,58.636,18.01c0.277,0.027,0.555,0.041,0.831,0.041
		c2.242,0,4.408-0.888,6.01-2.49c1.799-1.799,2.697-4.309,2.448-6.84c-0.157-1.61-3.01-28.705-17.604-57.828
		c4.412,0.328,8.713,0.481,12.844,0.481c26.449-0.001,46.206-5.831,47.315-6.165c2.435-0.734,4.413-2.52,5.393-4.867
		c0.979-2.348,0.854-5.01-0.338-7.256c-0.64-1.204-13.834-25.696-38.97-47.338c31.381-10.237,52.935-27.692,54.197-28.729
		c1.966-1.615,3.104-4.024,3.104-6.568S465.861,228.547,463.896,226.932z M428.042,153.484c-6.99,10.158-19.912,26.496-38.11,39.662
		c-7.726-1.427-15.832-2.269-24.204-2.269c-12.25,0-24.091,0.844-35.324,2.484c9.097-6.773,18.067-14.547,26.738-23.217
		c5.662-5.664,10.602-11.701,14.919-17.879C394.627,148.585,415.748,151.151,428.042,153.484z M233.5,320.971
		c-48.232,0-87.472-39.24-87.472-87.471s39.239-87.472,87.472-87.472s87.472,39.24,87.472,87.472S281.732,320.971,233.5,320.971z
		 M345.118,158.123c-7.479,7.479-15.173,14.238-22.959,20.179c-8.458-13.536-19.926-25.004-33.462-33.462
		c5.942-7.787,12.701-15.481,20.179-22.958c23.936-23.928,56.496-33.55,73.377-37.118
		C378.711,101.623,369.128,134.107,345.118,158.123z M314.497,39.347c2.246,12.091,4.66,32.738,1.083,55.002
		c-6.473,4.454-12.802,9.59-18.724,15.511c-8.668,8.668-16.442,17.638-23.216,26.736c1.64-11.232,2.484-23.073,2.484-35.324
		c0-8.003-0.774-15.761-2.087-23.177C287.399,59.523,304.154,46.39,314.497,39.347z M233.5,23.161
		c9.418,14.468,25.623,44.28,25.623,78.111c0,10.553-0.658,20.759-1.956,30.46c-7.607-1.769-15.53-2.705-23.667-2.705
		s-16.06,0.936-23.667,2.705c-1.297-9.702-1.956-19.907-1.956-30.46C207.877,67.438,224.085,37.625,233.5,23.161z M153.486,38.94
		c10.138,6.962,26.446,19.855,39.659,38.129c-1.427,7.726-2.269,15.831-2.269,24.204c0,12.252,0.844,24.092,2.484,35.324
		c-6.774-9.099-14.549-18.068-23.217-26.737c-5.664-5.662-11.701-10.602-17.879-14.919C148.583,72.361,151.153,51.231,153.486,38.94
		z M158.123,121.881c7.479,7.478,14.237,15.172,20.18,22.959c-13.537,8.458-25.004,19.926-33.462,33.462
		c-7.788-5.943-15.481-12.701-22.958-20.178c-23.932-23.938-33.552-56.498-37.119-73.377
		C101.623,88.289,134.106,97.872,158.123,121.881z M39.348,152.503c12.091-2.246,32.738-4.66,55.002-1.082
		c4.454,6.473,9.59,12.802,15.511,18.723c8.667,8.668,17.636,16.442,26.736,23.217c-11.233-1.64-23.073-2.484-35.324-2.484
		c-8.004,0-15.761,0.774-23.178,2.088C59.523,179.601,46.389,162.845,39.348,152.503z M101.272,207.877
		c10.552,0,20.758,0.658,30.461,1.956c-1.769,7.607-2.705,15.53-2.705,23.667c0,8.138,0.937,16.061,2.705,23.668
		c-9.703,1.298-19.908,1.956-30.461,1.956c-33.834,0-63.648-16.208-78.111-25.623C37.629,224.082,67.441,207.877,101.272,207.877z
		 M38.958,313.516c6.99-10.158,19.912-26.496,38.11-39.661c7.726,1.427,15.832,2.269,24.205,2.269
		c12.25,0,24.091-0.844,35.324-2.484c-9.1,6.775-18.07,14.549-26.736,23.218c-5.662,5.664-10.603,11.701-14.92,17.879
		C72.371,318.415,51.251,315.849,38.958,313.516z M121.882,308.876c7.477-7.478,15.171-14.237,22.959-20.179
		c8.458,13.536,19.926,25.004,33.462,33.462c-5.942,7.786-12.701,15.481-20.179,22.959c-23.938,23.93-56.497,33.551-73.377,37.118
		C88.289,365.377,97.871,332.893,121.882,308.876z M152.518,427.642c-2.24-12.125-4.655-32.815-1.097-54.992
		c6.473-4.454,12.802-9.59,18.724-15.51c8.668-8.669,16.442-17.638,23.216-26.736c-1.64,11.232-2.484,23.072-2.484,35.324
		c0,8.004,0.774,15.761,2.087,23.177C179.608,407.468,162.861,420.598,152.518,427.642z M233.5,443.839
		c-9.418-14.468-25.623-44.28-25.623-78.111c0-10.554,0.658-20.76,1.956-30.462c7.607,1.769,15.53,2.705,23.667,2.705
		s16.06-0.936,23.667-2.705c1.297,9.702,1.956,19.908,1.956,30.462C259.123,399.562,242.915,429.375,233.5,443.839z M313.513,428.06
		c-10.138-6.962-26.445-19.854-39.658-38.128c1.427-7.726,2.269-15.832,2.269-24.205c0-12.252-0.844-24.092-2.484-35.324
		c6.774,9.098,14.548,18.068,23.217,26.737c5.664,5.662,11.701,10.602,17.879,14.919
		C318.417,394.639,315.847,415.769,313.513,428.06z M308.877,345.119c-7.479-7.479-14.238-15.173-20.18-22.96
		c13.536-8.458,25.004-19.925,33.462-33.461c7.786,5.941,15.48,12.7,22.958,20.178c23.929,23.935,33.551,56.496,37.119,73.377
		C365.377,378.711,332.894,369.128,308.877,345.119z M427.652,314.497c-12.092,2.245-32.739,4.659-55.002,1.082
		c-4.454-6.473-9.59-12.802-15.51-18.724c-8.67-8.669-17.639-16.443-26.737-23.216c11.233,1.64,23.074,2.484,35.324,2.484
		c8.004,0,15.761-0.774,23.178-2.088C407.477,287.399,420.611,304.155,427.652,314.497z M365.728,259.123
		c-10.552,0-20.758-0.658-30.461-1.956c1.769-7.607,2.705-15.53,2.705-23.668c0-8.137-0.937-16.06-2.705-23.667
		c9.703-1.298,19.909-1.956,30.461-1.956c33.834,0,63.648,16.208,78.111,25.623C429.371,242.918,399.559,259.123,365.728,259.123z"
		/>
	<path d="M233.5,164.768c-37.898,0-68.731,30.833-68.731,68.731c0,37.898,30.833,68.731,68.731,68.731s68.731-30.833,68.731-68.731
		C302.231,195.601,271.398,164.768,233.5,164.768z M233.5,285.231c-28.524,0-51.731-23.207-51.731-51.731
		c0-28.525,23.207-51.731,51.731-51.731s51.731,23.207,51.731,51.731C285.231,262.024,262.024,285.231,233.5,285.231z"/>
</g>
<g>
</g>
<g>
</g>
<g>
</g>
<g>
</g>
<g>
</g>
<g>
</g>
<g>
</g>
<g>
</g>
<g>
</g>
<g>
</g>
<g>
</g>
<g>
</g>
<g>
</g>
<g>
</g>
<g>
</g>
</svg>
